<svg width="30" height="24" viewBox="0 0 30 24" fill="none" xmlns="http://www.w3.org/2000/svg">
<path opacity="0.4" d="M8.02969 6.00049H10.5V10.5005H5.21719L6.64219 6.94268C6.87187 6.37549 7.42031 6.00049 8.03437 6.00049H8.02969ZM12.75 10.5005V6.00049H16.5563C17.0109 6.00049 17.4422 6.20674 17.7281 6.56299L20.8781 10.5005H12.75ZM3 20.2505C3 19.2559 3.39509 18.3021 4.09835 17.5988C4.80161 16.8956 5.75544 16.5005 6.75 16.5005C7.74456 16.5005 8.69839 16.8956 9.40165 17.5988C10.1049 18.3021 10.5 19.2559 10.5 20.2505C10.5 21.2451 10.1049 22.1989 9.40165 22.9021C8.69839 23.6054 7.74456 24.0005 6.75 24.0005C5.75544 24.0005 4.80161 23.6054 4.09835 22.9021C3.39509 22.1989 3 21.2451 3 20.2505ZM23.25 16.5005C24.2446 16.5005 25.1984 16.8956 25.9016 17.5988C26.6049 18.3021 27 19.2559 27 20.2505C27 21.2451 26.6049 22.1989 25.9016 22.9021C25.1984 23.6054 24.2446 24.0005 23.25 24.0005C22.2554 24.0005 21.3016 23.6054 20.5984 22.9021C19.8951 22.1989 19.5 21.2451 19.5 20.2505C19.5 19.2559 19.8951 18.3021 20.5984 17.5988C21.3016 16.8956 22.2554 16.5005 23.25 16.5005Z" fill="#0074FF"/>
<path d="M8.02969 6.00049H10.5V10.5005H5.21719L6.64219 6.94268C6.87187 6.37549 7.42031 6.00049 8.03437 6.00049H8.02969ZM12.75 10.5005V6.00049H16.5563C17.0109 6.00049 17.4422 6.20674 17.7281 6.56299L20.8781 10.5005H12.75ZM24.7594 10.5474L20.0719 4.68799C19.2188 3.61924 17.925 3.00049 16.5563 3.00049H8.02969C6.1875 3.00049 4.53281 4.1208 3.85312 5.82705L1.90312 10.7067C0.7875 11.1474 0 12.2302 0 13.5005V18.7505C0 19.5802 0.670312 20.2505 1.5 20.2505C1.5 17.3489 3.84844 15.0005 6.75 15.0005C9.65156 15.0005 12 17.3489 12 20.2505H18C18 17.3489 20.3484 15.0005 23.25 15.0005C26.1516 15.0005 28.5 17.3489 28.5 20.2505C29.3297 20.2505 30 19.5802 30 18.7505V16.5005C30 13.4442 27.7125 10.9224 24.7594 10.5474Z" fill="#0074FF"/>
</svg>
